<?xml version="1.0" encoding="utf-8" ?>
<svg xmlns="http://www.w3.org/2000/svg" xmlns:xlink="http://www.w3.org/1999/xlink" width="1024" height="1024">
	<path transform="scale(2 2)" d="M217.232 354.386L106.627 354.396C86.2499 354.401 76.7832 354.713 76.5986 332.387L76.5765 143.23C76.5754 130.699 73.8356 114.789 90.7973 112.271C98.3719 111.721 106.137 112.26 113.733 112.266L408.599 112.265C424.648 112.266 435.471 113.055 435.545 132.491L435.545 317.785C435.554 330.208 438.844 351.293 421.659 354.082C417.631 354.736 413.292 354.416 409.21 354.408L316.375 354.386L295.728 354.386C294.97 369.569 296.802 376.285 306.058 388.514C310.195 388.52 321.346 387.561 324.339 389.815C326.432 391.391 326.98 394.918 325.192 396.93C322.804 399.617 317.303 398.699 314.114 398.699L198.647 398.682C195.769 398.691 191.328 399.587 189.002 397.417C187.232 395.765 186.325 392.26 188.191 390.359C190.974 387.522 202.369 388.496 206.421 388.514C215.138 374.727 217.313 372.257 217.232 354.386ZM112.623 122.07C107.68 122.056 95.5859 121.519 91.5097 122.347C83.42 123.991 86.4812 141.675 86.4801 148.759L86.4849 304.295L400.125 304.295L425.735 304.295L425.738 149.545C425.735 124.61 431.367 122.038 407.223 122.073L112.623 122.07ZM87.8087 314.308L87.054 314.446C86.0454 316.11 86.3107 336.414 86.8935 338.956C88.4911 345.923 96.8243 344.455 102.279 344.446L403.392 344.43C408.69 344.434 418.475 346.048 422.823 342.821C427.868 337.683 425.754 321.572 425.735 314.308L87.8087 314.308ZM227.433 354.386C227.467 368.395 226.411 376.547 218.498 388.514L284.625 388.514L293.62 388.514C285.711 375.891 285.259 368.864 285.287 354.386L227.433 354.386Z"/>
	<path transform="scale(2 2)" d="M394.802 165.56C392.643 165.754 390.391 165.605 388.221 165.591L363.955 165.585C361.675 165.587 359.235 165.761 356.979 165.473C351.222 164.738 351.784 157.871 355.977 155.439C358.293 155.275 360.668 155.42 362.991 155.425L376.639 155.427C381.041 155.428 390.722 154.933 394.656 155.661C399.69 156.592 398.702 163.27 394.802 165.56Z"/>
	<path transform="scale(2 2)" d="M199.426 249.614L188.378 261.116C177.9 272.038 177.89 270.582 168.719 260.875L139.228 229.982C135.814 226.429 131.726 222.902 128.964 218.819C116.146 199.876 130.189 174.831 152.03 172.85C162.776 171.885 171.762 177.817 178.82 185.3C206.417 154.064 247.233 188.068 229.1 218.244C226.177 223.107 219.93 228.581 215.828 232.748L199.426 249.614ZM152.788 182.832C137.821 185.093 128.659 200.765 137.537 213.449C146.12 225.71 167.947 245.775 178.82 256.991C185.02 249.671 192.277 241.83 199.426 235.413L199.671 235.089C207.809 224.471 224.962 214.742 223.27 200.592C222.025 190.183 212.47 181.46 201.696 182.89C189.584 184.498 185.765 195.182 180.049 197.174C173.841 199.337 167.083 181.675 152.788 182.832Z"/>
	<path transform="scale(2 2)" d="M377.042 183.876C373.767 184.047 357.91 184.256 355.673 183.282C350.65 181.097 353.126 175.072 357.343 173.748C361.565 173.693 374.809 173.08 378.11 174.307C383.253 176.219 381.33 182.373 377.042 183.876Z"/>
	<path transform="scale(2 2)" d="M388.462 181.714C386.82 176.949 388.769 174.803 393.325 173.748C398.862 173.306 400.503 182.322 393.325 183.876C391.098 183.873 390.055 183.241 388.462 181.714Z"/>
	<path transform="scale(2 2)" d="M267.3 226.781C270.956 219.089 274.634 207.368 277.681 199.081C279.242 194.835 280.278 188.55 284.625 186.3C293.681 185.075 294.8 200.979 297.028 208.486C299.507 216.84 302.345 225.131 304.671 233.523C307.227 228.052 309.607 219.99 312.407 215.273C317.936 205.959 324.753 221.123 326.794 224.797L335.728 240.879C343.003 230.712 340.633 226.708 354.112 226.757L367.195 226.811C371.757 226.82 388.554 224.13 388.844 231.643C389.108 238.483 378.872 236.782 374.706 236.778C366.63 236.77 358.5 236.503 350.433 236.749C347.045 242.084 338.94 260.103 331.227 253.035C326.563 246.154 321.987 235.947 317.527 228.42C315.162 233.063 309.928 252.131 306.408 253.872C299.333 257.371 297.771 245.801 296.512 241.603L290.238 220.018C288.787 215.169 287.479 210.372 285.287 205.79C284.157 210.962 277.239 232.223 274.857 235.485C272.914 238.144 254.848 237.616 251.507 237.128C247.498 236.543 244.418 232.075 247.973 228.716C251.103 225.758 262.878 226.758 267.3 226.781Z"/>
	<path transform="scale(2 2)" d="M263.269 334.709C259.492 334.768 250.434 335.476 247.338 334.042C242.795 331.938 244.145 325.757 248.502 324.507C252.162 324.409 261.284 323.905 264.366 325.053C269.274 326.882 267.462 333.284 263.269 334.709Z"/>
</svg>
